<svg width="56" height="56" viewBox="0 0 56 56" fill="none" xmlns="http://www.w3.org/2000/svg">
<path d="M47.839 22.7403C48.664 17.2283 44.4653 14.2651 38.724 12.2884L40.5864 4.82164L36.0392 3.68894L34.2261 10.9589C33.0307 10.6612 31.8029 10.3803 30.5829 10.102L32.409 2.78407L27.8644 1.65137L26.0008 9.11553C25.0113 8.89029 24.04 8.66766 23.0971 8.43335L23.1023 8.41005L16.8314 6.84496L15.6217 11.6994C15.6217 11.6994 18.9955 12.4722 18.9243 12.5201C20.7659 12.9797 21.0988 14.1978 21.0431 15.1635L18.9217 23.6698C19.0486 23.7022 19.2131 23.7488 19.3944 23.8213C19.2429 23.7837 19.081 23.7423 18.9139 23.7021L15.9403 35.6182C15.715 36.1774 15.1438 37.0162 13.8565 36.6978C13.9018 36.7638 10.5513 35.8732 10.5513 35.8732L8.29395 41.0759L14.2113 42.5503C15.3122 42.826 16.391 43.1147 17.453 43.3865L15.5712 50.9388L20.1132 52.0715L21.9769 44.5995C23.2176 44.9361 24.422 45.2468 25.6006 45.5394L23.7434 52.9763L28.2905 54.1091L30.1724 46.5711C37.9262 48.0378 43.7568 47.4462 46.2111 40.4364C48.1887 34.7923 46.1126 31.5366 42.033 29.4136C45.004 28.7288 47.242 26.7754 47.839 22.7403V22.7403ZM37.4496 37.3023C36.0444 42.9464 26.5369 39.8952 23.4546 39.1302L25.9516 29.1249C29.0339 29.8938 38.9183 31.4162 37.4496 37.3023ZM38.8561 22.6588C37.5739 27.7928 29.6608 25.1844 27.0938 24.5449L29.3577 15.4703C31.9246 16.1098 40.1914 17.3034 38.8561 22.6588Z" fill="#E5ADF4"/>
</svg>
