<svg width="54" height="54" viewBox="0 0 54 54" fill="none" xmlns="http://www.w3.org/2000/svg">
<path d="M52.2442 27.5497V38.9531C52.24 39.6642 52.0493 40.3621 51.6906 40.9785C51.3319 41.5948 50.8176 42.1086 50.1979 42.4697L40.2069 48.1595C39.5881 48.5242 38.8812 48.7167 38.1607 48.7167C37.4404 48.7167 36.7333 48.5242 36.1146 48.1595L26.1235 42.4697C25.5038 42.1086 24.9895 41.5948 24.6308 40.9785C24.2722 40.3621 24.0815 39.6642 24.0773 38.9531V35.7525L29.1927 32.8167V38.3801L38.1448 43.5168L47.0967 38.3801V28.1305L38.1448 22.9939L17.1715 35.0058C16.5469 35.3537 15.8422 35.5365 15.1253 35.5365C14.4085 35.5365 13.7037 35.3537 13.0792 35.0058L3.08804 29.2922C2.47791 28.9257 1.97353 28.41 1.62346 27.7946C1.27349 27.1794 1.08974 26.4854 1.08984 25.7795V14.3761C1.09399 13.6649 1.28475 12.9671 1.64344 12.3507C2.00201 11.7343 2.51639 11.2205 3.13597 10.8594L13.1271 5.1696C13.7472 4.80856 14.4536 4.61816 15.1732 4.61816C15.8929 4.61816 16.5993 4.80856 17.2195 5.1696L27.2106 10.8594C27.8302 11.2205 28.3445 11.7343 28.7031 12.3507C29.0618 12.9671 29.2525 13.6649 29.2567 14.3761V17.5766L24.1093 20.4926V14.9608L15.1573 9.82423L6.20522 14.9608V25.1986L15.1573 30.3354L36.1305 18.3235C36.7551 17.9755 37.4598 17.7927 38.1768 17.7927C38.8936 17.7927 39.5983 17.9755 40.2229 18.3235L50.214 24.0369C50.8301 24.3997 51.3408 24.9137 51.6965 25.5292C52.0524 26.1447 52.241 26.8408 52.2442 27.5497Z" fill="#E5ADF4"/>
</svg>
